{
	"asset":{
		"generator":"Khronos glTF Blender I/O v4.0.44",
		"version":"2.0"
	},
	"scene":0,
	"scenes":[
		{
			"name":"Scene",
			"nodes":[
				0
			]
		}
	],
	"nodes":[
		{
			"mesh":0,
			"name":"Crate01"
		}
	],
	"materials":[
		{
			"emissiveFactor":[
				1,
				1,
				1
			],
			"emissiveTexture":{
				"index":0
			},
			"name":"crate01",
			"normalTexture":{
				"index":1
			},
			"pbrMetallicRoughness":{
				"baseColorTexture":{
					"index":2
				},
				"metallicRoughnessTexture":{
					"index":3
				}
			}
		}
	],
	"meshes":[
		{
			"name":"Crate01",
			"primitives":[
				{
					"attributes":{
						"POSITION":0,
						"NORMAL":1,
						"TEXCOORD_0":2
					},
					"indices":3,
					"material":0
				}
			]
		}
	],
	"textures":[
		{
			"sampler":0,
			"source":0
		},
		{
			"sampler":0,
			"source":1
		},
		{
			"sampler":0,
			"source":2
		},
		{
			"sampler":0,
			"source":3
		}
	],
	"images":[
		{
			"mimeType":"image/png",
			"name":"crate01_emisson",
			"uri":"Textures/crate01_emisson.png"
		},
		{
			"mimeType":"image/png",
			"name":"crate01_normal",
			"uri":"Textures/crate01_normal.png"
		},
		{
			"mimeType":"image/png",
			"name":"crate01_diffuse",
			"uri":"Textures/crate01_diffuse.png"
		},
		{
			"mimeType":"image/png",
			"name":"crate01_metalness-crate01_roughness",
			"uri":"Textures/crate01_metalness-crate01_roughness.png"
		}
	],
	"accessors":[
		{
			"bufferView":0,
			"componentType":5126,
			"count":2026,
			"max":[
				0.4800000786781311,
				0.9600000381469727,
				0.4800001084804535
			],
			"min":[
				-0.4800000786781311,
				-5.960464477539063e-08,
				-0.4800001084804535
			],
			"type":"VEC3"
		},
		{
			"bufferView":1,
			"componentType":5126,
			"count":2026,
			"type":"VEC3"
		},
		{
			"bufferView":2,
			"componentType":5126,
			"count":2026,
			"type":"VEC2"
		},
		{
			"bufferView":3,
			"componentType":5123,
			"count":5412,
			"type":"SCALAR"
		}
	],
	"bufferViews":[
		{
			"buffer":0,
			"byteLength":24312,
			"byteOffset":0,
			"target":34962
		},
		{
			"buffer":0,
			"byteLength":24312,
			"byteOffset":24312,
			"target":34962
		},
		{
			"buffer":0,
			"byteLength":16208,
			"byteOffset":48624,
			"target":34962
		},
		{
			"buffer":0,
			"byteLength":10824,
			"byteOffset":64832,
			"target":34963
		}
	],
	"samplers":[
		{
			"magFilter":9729,
			"minFilter":9987
		}
	],
	"buffers":[
		{
			"byteLength":75656,
			"uri":"crate01.bin"
		}
	]
}
