{
	"accessors": [
		{
			"bufferView": 0,
			"componentType": 5126,
			"count": 130,
			"max": [
				0.2799999713897705,
				0.6000000238418579,
				0.2800000011920929
			],
			"min": [
				-0.2799999713897705,
				0.0599999725818634,
				-0.2800000309944153
			],
			"type": "VEC3"
		},
		{
			"bufferView": 1,
			"componentType": 5126,
			"count": 130,
			"type": "VEC3"
		},
		{
			"bufferView": 2,
			"componentType": 5126,
			"count": 130,
			"type": "VEC2"
		},
		{
			"bufferView": 3,
			"componentType": 5126,
			"count": 130,
			"type": "VEC4"
		},
		{
			"bufferView": 4,
			"componentType": 5123,
			"count": 384,
			"type": "SCALAR"
		}
	],
	"asset": {
		"generator": "Ultra Engine glTF Exporter",
		"version": "2.0"
	},
	"bufferViews": [
		{
			"buffer": 0,
			"byteLength": 1560,
			"byteOffset": 0
		},
		{
			"buffer": 0,
			"byteLength": 1560,
			"byteOffset": 1560
		},
		{
			"buffer": 0,
			"byteLength": 1040,
			"byteOffset": 3120
		},
		{
			"buffer": 0,
			"byteLength": 2080,
			"byteOffset": 4160
		},
		{
			"buffer": 0,
			"byteLength": 768,
			"byteOffset": 6240
		}
	],
	"buffers": [
		{
			"byteLength": 7008,
			"uri": "vrteleportglow.bin"
		}
	],
	"images": [
		{
			"uri": "Textures/vrteleportglow.png"
		}
	],
	"materials": [
		{
			"alphaMode": "BLEND",
			"doubleSided": true,
			"extras": {
				"ultra": {
					"displacement": [
						0.10000000149011612,
						0.0
					],
					"pickmode": true,
					"shaderfamily": "Shaders/Unlit.fam",
					"shadow": false
				}
			},
			"name": "VRTeleportGlow",
			"pbrMetallicRoughness": {
				"baseColorTexture": {
					"index": 0
				},
				"metallicFactor": 0.0,
				"roughnessFactor": 0.5
			}
		}
	],
	"meshes": [
		{
			"name": "VRTeleportGlow",
			"primitives": [
				{
					"attributes": {
						"NORMAL": 1,
						"POSITION": 0,
						"TANGENT": 3,
						"TEXCOORD_0": 2
					},
					"indices": 4,
					"material": 0,
					"mode": 4
				}
			]
		}
	],
	"nodes": [
		{
			"extras": {
				"ultra": {
					"collisiontype": 1
				}
			},
			"mesh": 0,
			"name": "VRTeleportGlow"
		}
	],
	"scene": 0,
	"scenes": [
		{
			"nodes": [
				0
			]
		}
	],
	"textures": [
		{
			"source": 0
		}
	]
}