{
	"accessors": [
		{
			"bufferView": 0,
			"componentType": 5126,
			"count": 123,
			"max": [
				0.18124082684516907,
				0.3280595541000366,
				0.016000008210539818
			],
			"min": [
				-0.18124081194400787,
				0.14818395674228668,
				-0.01599999889731407
			],
			"type": "VEC3"
		},
		{
			"bufferView": 1,
			"componentType": 5126,
			"count": 123,
			"type": "VEC3"
		},
		{
			"bufferView": 2,
			"componentType": 5126,
			"count": 123,
			"type": "VEC2"
		},
		{
			"bufferView": 3,
			"componentType": 5126,
			"count": 123,
			"type": "VEC4"
		},
		{
			"bufferView": 4,
			"componentType": 5123,
			"count": 210,
			"type": "SCALAR"
		},
		{
			"bufferView": 5,
			"componentType": 5126,
			"count": 72,
			"max": [
				0.180354043841362,
				0.3280595541000366,
				0.015999997034668922
			],
			"min": [
				-0.18124081194400787,
				0.2929132878780365,
				-0.012124195694923401
			],
			"type": "VEC3"
		},
		{
			"bufferView": 6,
			"componentType": 5126,
			"count": 72,
			"type": "VEC3"
		},
		{
			"bufferView": 7,
			"componentType": 5126,
			"count": 72,
			"type": "VEC2"
		},
		{
			"bufferView": 8,
			"componentType": 5126,
			"count": 72,
			"type": "VEC4"
		},
		{
			"bufferView": 9,
			"componentType": 5123,
			"count": 150,
			"type": "SCALAR"
		}
	],
	"asset": {
		"generator": "Ultra Engine glTF Exporter",
		"version": "2.0"
	},
	"bufferViews": [
		{
			"buffer": 0,
			"byteLength": 1476,
			"byteOffset": 0
		},
		{
			"buffer": 0,
			"byteLength": 1476,
			"byteOffset": 1476
		},
		{
			"buffer": 0,
			"byteLength": 984,
			"byteOffset": 2952
		},
		{
			"buffer": 0,
			"byteLength": 1968,
			"byteOffset": 3936
		},
		{
			"buffer": 0,
			"byteLength": 420,
			"byteOffset": 5904
		},
		{
			"buffer": 0,
			"byteLength": 864,
			"byteOffset": 6324
		},
		{
			"buffer": 0,
			"byteLength": 864,
			"byteOffset": 7188
		},
		{
			"buffer": 0,
			"byteLength": 576,
			"byteOffset": 8052
		},
		{
			"buffer": 0,
			"byteLength": 1152,
			"byteOffset": 8628
		},
		{
			"buffer": 0,
			"byteLength": 300,
			"byteOffset": 9780
		}
	],
	"buffers": [
		{
			"byteLength": 10080,
			"uri": "vrteleportarrow.bin"
		}
	],
	"extensionsUsed": [
		"MSFT_texture_dds"
	],
	"images": [
		{
			"uri": "Textures/vrteleport.png"
		},
		{
			"uri": "Textures/vrteleport.dds"
		}
	],
	"materials": [
		{
			"alphaMode": "OPAQUE",
			"doubleSided": false,
			"extras": {
				"ultra": {
					"displacement": [
						0.10000000149011612,
						0.0
					],
					"pickmode": true,
					"shaderfamily": "Shaders/Unlit.fam",
					"shadow": false
				}
			},
			"name": "VRTeleport",
			"pbrMetallicRoughness": {
				"baseColorTexture": {
					"index": 0
				},
				"metallicFactor": 0.0,
				"roughnessFactor": 0.5
			}
		}
	],
	"meshes": [
		{
			"name": "VRTeleportArrow",
			"primitives": [
				{
					"attributes": {
						"NORMAL": 1,
						"POSITION": 0,
						"TANGENT": 3,
						"TEXCOORD_0": 2
					},
					"indices": 4,
					"material": 0,
					"mode": 4
				},
				{
					"attributes": {
						"NORMAL": 6,
						"POSITION": 5,
						"TANGENT": 8,
						"TEXCOORD_0": 7
					},
					"indices": 9,
					"material": 0,
					"mode": 4
				}
			]
		}
	],
	"nodes": [
		{
			"extras": {
				"ultra": {
					"collisiontype": 1
				}
			},
			"mesh": 0,
			"name": "VRTeleportArrow"
		}
	],
	"scene": 0,
	"scenes": [
		{
			"nodes": [
				0
			]
		}
	],
	"textures": [
		{
			"extensions": {
				"MSFT_texture_dds": {
					"source": 1
				}
			},
			"source": 0
		}
	]
}