{
	"accessors": [
		{
			"bufferView": 0,
			"componentType": 5126,
			"count": 1577,
			"max": [
				0.26630130410194397,
				0.030366526916623116,
				0.26630130410194397
			],
			"min": [
				-0.26630130410194397,
				4.315038677304983e-05,
				-0.26630130410194397
			],
			"type": "VEC3"
		},
		{
			"bufferView": 1,
			"componentType": 5126,
			"count": 1577,
			"type": "VEC3"
		},
		{
			"bufferView": 2,
			"componentType": 5126,
			"count": 1577,
			"type": "VEC2"
		},
		{
			"bufferView": 3,
			"componentType": 5126,
			"count": 1577,
			"type": "VEC4"
		},
		{
			"bufferView": 4,
			"componentType": 5123,
			"count": 4608,
			"type": "SCALAR"
		},
		{
			"bufferView": 5,
			"componentType": 5126,
			"count": 130,
			"max": [
				0.2405681312084198,
				0.4999999403953552,
				0.2405681312084198
			],
			"min": [
				-0.2405681312084198,
				0.0,
				-0.2405681312084198
			],
			"type": "VEC3"
		},
		{
			"bufferView": 6,
			"componentType": 5126,
			"count": 130,
			"type": "VEC3"
		},
		{
			"bufferView": 7,
			"componentType": 5126,
			"count": 130,
			"type": "VEC2"
		},
		{
			"bufferView": 8,
			"componentType": 5126,
			"count": 130,
			"type": "VEC4"
		},
		{
			"bufferView": 9,
			"componentType": 5123,
			"count": 384,
			"type": "SCALAR"
		}
	],
	"asset": {
		"generator": "Ultra Engine glTF Exporter",
		"version": "2.0"
	},
	"bufferViews": [
		{
			"buffer": 0,
			"byteLength": 18924,
			"byteOffset": 0
		},
		{
			"buffer": 0,
			"byteLength": 18924,
			"byteOffset": 18924
		},
		{
			"buffer": 0,
			"byteLength": 12616,
			"byteOffset": 37848
		},
		{
			"buffer": 0,
			"byteLength": 25232,
			"byteOffset": 50464
		},
		{
			"buffer": 0,
			"byteLength": 9216,
			"byteOffset": 75696
		},
		{
			"buffer": 0,
			"byteLength": 1560,
			"byteOffset": 84912
		},
		{
			"buffer": 0,
			"byteLength": 1560,
			"byteOffset": 86472
		},
		{
			"buffer": 0,
			"byteLength": 1040,
			"byteOffset": 88032
		},
		{
			"buffer": 0,
			"byteLength": 2080,
			"byteOffset": 89072
		},
		{
			"buffer": 0,
			"byteLength": 768,
			"byteOffset": 91152
		}
	],
	"buffers": [
		{
			"byteLength": 91920,
			"uri": "vrteleporttarget.bin"
		}
	],
	"extensionsUsed": [
		"MSFT_texture_dds"
	],
	"images": [
		{
			"uri": "Textures/vrteleport.png"
		},
		{
			"uri": "Textures/vrteleport.dds"
		},
		{
			"uri": "Textures/vrteleportglow.png"
		},
		{
			"uri": "Textures/vrteleportglow.dds"
		}
	],
	"materials": [
		{
			"alphaMode": "OPAQUE",
			"doubleSided": false,
			"extras": {
				"ultra": {
					"displacement": [
						0.10000000149011612,
						0.0
					],
					"pickmode": true,
					"shaderfamily": "Shaders/Unlit.fam",
					"shadow": false
				}
			},
			"name": "VRTeleport",
			"pbrMetallicRoughness": {
				"baseColorTexture": {
					"index": 0
				},
				"metallicFactor": 0.0,
				"roughnessFactor": 0.5
			}
		},
		{
			"alphaMode": "BLEND",
			"doubleSided": true,
			"extras": {
				"ultra": {
					"displacement": [
						0.10000000149011612,
						0.0
					],
					"pickmode": true,
					"shaderfamily": "Shaders/Unlit.fam",
					"shadow": false
				}
			},
			"name": "VRTeleportGlow",
			"pbrMetallicRoughness": {
				"baseColorTexture": {
					"index": 1
				},
				"metallicFactor": 0.0,
				"roughnessFactor": 0.5
			}
		}
	],
	"meshes": [
		{
			"name": "VRTeleportTarget",
			"primitives": [
				{
					"attributes": {
						"NORMAL": 1,
						"POSITION": 0,
						"TANGENT": 3,
						"TEXCOORD_0": 2
					},
					"indices": 4,
					"material": 0,
					"mode": 4
				},
				{
					"attributes": {
						"NORMAL": 6,
						"POSITION": 5,
						"TANGENT": 8,
						"TEXCOORD_0": 7
					},
					"indices": 9,
					"material": 1,
					"mode": 4
				}
			]
		}
	],
	"nodes": [
		{
			"extras": {
				"ultra": {
					"collisiontype": 1
				}
			},
			"mesh": 0,
			"name": "VRTeleportTarget"
		}
	],
	"scene": 0,
	"scenes": [
		{
			"nodes": [
				0
			]
		}
	],
	"textures": [
		{
			"extensions": {
				"MSFT_texture_dds": {
					"source": 1
				}
			},
			"source": 0
		},
		{
			"extensions": {
				"MSFT_texture_dds": {
					"source": 3
				}
			},
			"source": 2
		}
	]
}