{
	"accessors": [
		{
			"bufferView": 0,
			"componentType": 5126,
			"count": 2237,
			"max": [
				0.30000001192092896,
				0.059888843446969986,
				0.46363016963005066
			],
			"min": [
				-0.30000001192092896,
				0.0,
				-0.30000001192092896
			],
			"type": "VEC3"
		},
		{
			"bufferView": 1,
			"componentType": 5126,
			"count": 2237,
			"type": "VEC3"
		},
		{
			"bufferView": 2,
			"componentType": 5126,
			"count": 2237,
			"type": "VEC2"
		},
		{
			"bufferView": 3,
			"componentType": 5126,
			"count": 2237,
			"type": "VEC4"
		},
		{
			"bufferView": 4,
			"componentType": 5123,
			"count": 4968,
			"type": "SCALAR"
		}
	],
	"asset": {
		"generator": "Ultra Engine glTF Exporter",
		"version": "2.0"
	},
	"bufferViews": [
		{
			"buffer": 0,
			"byteLength": 26844,
			"byteOffset": 0
		},
		{
			"buffer": 0,
			"byteLength": 26844,
			"byteOffset": 26844
		},
		{
			"buffer": 0,
			"byteLength": 17896,
			"byteOffset": 53688
		},
		{
			"buffer": 0,
			"byteLength": 35792,
			"byteOffset": 71584
		},
		{
			"buffer": 0,
			"byteLength": 9936,
			"byteOffset": 107376
		}
	],
	"buffers": [
		{
			"byteLength": 117312,
			"uri": "vrteleportdestination.bin"
		}
	],
	"extensionsUsed": [
		"MSFT_texture_dds"
	],
	"images": [
		{
			"uri": "Textures/vrteleport.png"
		},
		{
			"uri": "Textures/vrteleport.dds"
		}
	],
	"materials": [
		{
			"alphaMode": "OPAQUE",
			"doubleSided": false,
			"extras": {
				"ultra": {
					"displacement": [
						0.10000000149011612,
						0.0
					],
					"pickmode": true,
					"shaderfamily": "Shaders/Unlit.fam",
					"shadow": false
				}
			},
			"name": "VRTeleport",
			"pbrMetallicRoughness": {
				"baseColorTexture": {
					"index": 0
				},
				"metallicFactor": 0.0,
				"roughnessFactor": 0.5
			}
		}
	],
	"meshes": [
		{
			"name": "VRTeleportDestination",
			"primitives": [
				{
					"attributes": {
						"NORMAL": 1,
						"POSITION": 0,
						"TANGENT": 3,
						"TEXCOORD_0": 2
					},
					"indices": 4,
					"material": 0,
					"mode": 4
				}
			]
		}
	],
	"nodes": [
		{
			"extras": {
				"ultra": {
					"collisiontype": 1
				}
			},
			"mesh": 0,
			"name": "VRTeleportDestination"
		}
	],
	"scene": 0,
	"scenes": [
		{
			"nodes": [
				0
			]
		}
	],
	"textures": [
		{
			"extensions": {
				"MSFT_texture_dds": {
					"source": 1
				}
			},
			"source": 0
		}
	]
}