{
	"accessors":
	[
		{
			"bufferView": 0,
			"componentType": 5126,
			"count": 444,
			"max":
			[
				0.16,
				0.16,
				0.157576
			],
			"min":
			[
				-0.16,
				-0.16,
				-0.16
			],
			"type": "VEC3"
		},
		{
			"bufferView": 1,
			"componentType": 5126,
			"count": 444,
			"type": "VEC2"
		},
		{
			"bufferView": 2,
			"componentType": 5126,
			"count": 444,
			"type": "VEC3"
		},
		{
			"bufferView": 3,
			"componentType": 5123,
			"count": 1728,
			"type": "SCALAR"
		}
	],
	"asset":
	{
		"generator": "Khronos glTF Blender I/O v3.5.30",
		"version": "2.0"
	},
	"bufferViews":
	[
		{
			"buffer": 0,
			"byteLength": 5328,
			"byteOffset": 0,
			"target": 34962
		},
		{
			"buffer": 0,
			"byteLength": 3552,
			"byteOffset": 5328,
			"target": 34962
		},
		{
			"buffer": 0,
			"byteLength": 5328,
			"byteOffset": 8880,
			"target": 34962
		},
		{
			"buffer": 0,
			"byteLength": 3456,
			"byteOffset": 14208,
			"target": 34963
		}
	],
	"buffers":
	[
		{
			"byteLength": 17664,
			"uri": "widget3d.bin"
		}
	],
	"extensionsUsed":
	[
		"MSFT_texture_dds"
	],
	"images":
	[
		{
			"mimeType": "image/png",
			"name": "widgetcolors",
			"uri": "Textures/widgetcolors.png"
		},
		{
			"mimeType": "image/vnd-ms.dds",
			"name": "widgetcolors",
			"uri": "Textures/widgetcolors.dds"
		}
	],
	"materials":
	[
		{
			"name": "WidgetColors",
			"pbrMetallicRoughness":
			{
				"baseColorTexture":
				{
					"index": 0
				},
				"metallicFactor": 0
			}
		}
	],
	"meshes":
	[
		{
			"name": "Widget3D",
			"primitives":
			[
				{
					"attributes":
					{
						"NORMAL": 2,
						"POSITION": 0,
						"TEXCOORD_0": 1
					},
					"indices": 3,
					"material": 0
				}
			]
		}
	],
	"nodes":
	[
		{
			"mesh": 0,
			"name": "Widget3D"
		}
	],
	"samplers":
	[
		{
			"magFilter": 9729,
			"minFilter": 9987
		}
	],
	"scene": 0,
	"scenes":
	[
		{
			"name": "Scene",
			"nodes":
			[
				0
			]
		}
	],
	"textures":
	[
		{
			"extensions":
			{
				"MSFT_texture_dds":
				{
					"source": 1
				}
			},
			"sampler": 0,
			"source": 0
		}
	]
}