{
	"asset":{
		"generator":"Khronos glTF Blender I/O v4.1.63",
		"version":"2.0"
	},
	"scene":0,
	"scenes":[
		{
			"name":"Scene",
			"nodes":[
				0
			]
		}
	],
	"nodes":[
		{
			"mesh":0,
			"name":"PC"
		}
	],
	"materials":[
		{
			"doubleSided":true,
			"name":"deskobjects1",
			"pbrMetallicRoughness":{
				"baseColorTexture":{
					"index":0
				},
				"metallicFactor":0,
				"roughnessFactor":0.5
			}
		}
	],
	"meshes":[
		{
			"name":"PC",
			"primitives":[
				{
					"attributes":{
						"POSITION":0,
						"NORMAL":1,
						"TEXCOORD_0":2
					},
					"indices":3,
					"material":0
				}
			]
		}
	],
	"textures":[
		{
			"sampler":0,
			"source":0
		}
	],
	"images":[
		{
			"mimeType":"image/png",
			"name":"deskobjects1",
			"uri":"deskobjects1.png"
		}
	],
	"accessors":[
		{
			"bufferView":0,
			"componentType":5126,
			"count":274,
			"max":[
				0.11068838089704514,
				0.43913859128952026,
				0.2469324916601181
			],
			"min":[
				-0.11068838089704514,
				0.001034613698720932,
				-0.2469324916601181
			],
			"type":"VEC3"
		},
		{
			"bufferView":1,
			"componentType":5126,
			"count":274,
			"type":"VEC3"
		},
		{
			"bufferView":2,
			"componentType":5126,
			"count":274,
			"type":"VEC2"
		},
		{
			"bufferView":3,
			"componentType":5123,
			"count":504,
			"type":"SCALAR"
		}
	],
	"bufferViews":[
		{
			"buffer":0,
			"byteLength":3288,
			"byteOffset":0,
			"target":34962
		},
		{
			"buffer":0,
			"byteLength":3288,
			"byteOffset":3288,
			"target":34962
		},
		{
			"buffer":0,
			"byteLength":2192,
			"byteOffset":6576,
			"target":34962
		},
		{
			"buffer":0,
			"byteLength":1008,
			"byteOffset":8768,
			"target":34963
		}
	],
	"samplers":[
		{
			"magFilter":9729,
			"minFilter":9987
		}
	],
	"buffers":[
		{
			"byteLength":9776,
			"uri":"pc.bin"
		}
	]
}
