{
	"accessors":
	[
		{
			"bufferView": 0,
			"componentType": 5126,
			"count": 52,
			"max":
			[
				0.7,
				2.3,
				0.2
			],
			"min":
			[
				-0.7,
				0,
				-0.2
			],
			"type": "VEC3"
		},
		{
			"bufferView": 1,
			"componentType": 5126,
			"count": 52,
			"type": "VEC2"
		},
		{
			"bufferView": 2,
			"componentType": 5126,
			"count": 52,
			"type": "VEC3"
		},
		{
			"bufferView": 3,
			"componentType": 5123,
			"count": 90,
			"type": "SCALAR"
		}
	],
	"asset":
	{
		"generator": "Khronos glTF Blender I/O v3.5.30",
		"version": "2.0"
	},
	"bufferViews":
	[
		{
			"buffer": 0,
			"byteLength": 624,
			"byteOffset": 0,
			"target": 34962
		},
		{
			"buffer": 0,
			"byteLength": 416,
			"byteOffset": 624,
			"target": 34962
		},
		{
			"buffer": 0,
			"byteLength": 624,
			"byteOffset": 1040,
			"target": 34962
		},
		{
			"buffer": 0,
			"byteLength": 180,
			"byteOffset": 1664,
			"target": 34963
		}
	],
	"buffers":
	[
		{
			"byteLength": 1844,
			"uri": "doorframe.bin"
		}
	],
	"extensionsUsed":
	[
		"MSFT_texture_dds"
	],
	"images":
	[
		{
			"mimeType": "image/png",
			"name": "doorframe_diffuse",
			"uri": "Textures/doorframe_diffuse.png"
		},
		{
			"mimeType": "image/png",
			"name": "doorframe_metal-doorframe_roughness",
			"uri": "Textures/doorframe_metal-doorframe_roughness.png"
		},
		{
			"mimeType": "image/vnd-ms.dds",
			"name": "doorframe_diffuse",
			"uri": "Textures/doorframe_diffuse.dds"
		},
		{
			"mimeType": "image/vnd-ms.dds",
			"name": "doorframe_metal-doorframe_roughness",
			"uri": "Textures/doorframe_metal-doorframe_roughness.dds"
		}
	],
	"materials":
	[
		{
			"name": "DoorFrame",
			"pbrMetallicRoughness":
			{
				"baseColorTexture":
				{
					"index": 0
				},
				"metallicRoughnessTexture":
				{
					"index": 1
				}
			}
		}
	],
	"meshes":
	[
		{
			"name": "DoorFrame",
			"primitives":
			[
				{
					"attributes":
					{
						"NORMAL": 2,
						"POSITION": 0,
						"TEXCOORD_0": 1
					},
					"indices": 3,
					"material": 0
				}
			]
		}
	],
	"nodes":
	[
		{
			"mesh": 0,
			"name": "DoorFrame"
		}
	],
	"samplers":
	[
		{
			"magFilter": 9729,
			"minFilter": 9987
		}
	],
	"scene": 0,
	"scenes":
	[
		{
			"name": "Scene",
			"nodes":
			[
				0
			]
		}
	],
	"textures":
	[
		{
			"extensions":
			{
				"MSFT_texture_dds":
				{
					"source": 2
				}
			},
			"sampler": 0,
			"source": 0
		},
		{
			"extensions":
			{
				"MSFT_texture_dds":
				{
					"source": 3
				}
			},
			"sampler": 0,
			"source": 1
		}
	]
}