{
	"accessors":
	[
		{
			"bufferView": 0,
			"componentType": 5126,
			"count": 260,
			"max":
			[
				0.112,
				0.112,
				0.0576
			],
			"min":
			[
				-0.112,
				-0.112,
				-1.74114e-08
			],
			"type": "VEC3"
		},
		{
			"bufferView": 1,
			"componentType": 5126,
			"count": 260,
			"type": "VEC2"
		},
		{
			"bufferView": 2,
			"componentType": 5126,
			"count": 260,
			"type": "VEC3"
		},
		{
			"bufferView": 3,
			"componentType": 5123,
			"count": 858,
			"type": "SCALAR"
		}
	],
	"asset":
	{
		"generator": "Khronos glTF Blender I/O v3.5.30",
		"version": "2.0"
	},
	"bufferViews":
	[
		{
			"buffer": 0,
			"byteLength": 3120,
			"byteOffset": 0,
			"target": 34962
		},
		{
			"buffer": 0,
			"byteLength": 2080,
			"byteOffset": 3120,
			"target": 34962
		},
		{
			"buffer": 0,
			"byteLength": 3120,
			"byteOffset": 5200,
			"target": 34962
		},
		{
			"buffer": 0,
			"byteLength": 1716,
			"byteOffset": 8320,
			"target": 34963
		}
	],
	"buffers":
	[
		{
			"byteLength": 10036,
			"uri": "pushbuttontop.bin"
		}
	],
	"extensionsUsed":
	[
		"MSFT_texture_dds"
	],
	"images":
	[
		{
			"mimeType": "image/png",
			"name": "pushbutton_emisson",
			"uri": "Textures/pushbutton_emisson.png"
		},
		{
			"mimeType": "image/png",
			"name": "pushbutton_normal",
			"uri": "Textures/pushbutton_normal.png"
		},
		{
			"mimeType": "image/png",
			"name": "pushbutton_diffuse",
			"uri": "Textures/pushbutton_diffuse.png"
		},
		{
			"mimeType": "image/png",
			"name": "pushbutton_metal-pushbutton_roughness",
			"uri": "Textures/pushbutton_metal-pushbutton_roughness.png"
		},
		{
			"mimeType": "image/vnd-ms.dds",
			"name": "pushbutton_diffuse",
			"uri": "Textures/pushbutton_diffuse.dds"
		},
		{
			"mimeType": "image/vnd-ms.dds",
			"name": "pushbutton_metal-pushbutton_roughness",
			"uri": "Textures/pushbutton_metal-pushbutton_roughness.dds"
		},
		{
			"mimeType": "image/vnd-ms.dds",
			"name": "pushbutton_normal",
			"uri": "Textures/pushbutton_normal.dds"
		},
		{
			"mimeType": "image/vnd-ms.dds",
			"name": "pushbutton_emisson",
			"uri": "Textures/pushbutton_emisson.dds"
		}
	],
	"materials":
	[
		{
			"emissiveFactor":
			[
				1,
				1,
				1
			],
			"emissiveTexture":
			{
				"index": 0
			},
			"name": "PushButton",
			"normalTexture":
			{
				"index": 1
			},
			"pbrMetallicRoughness":
			{
				"baseColorTexture":
				{
					"index": 2
				},
				"metallicRoughnessTexture":
				{
					"index": 3
				}
			}
		}
	],
	"meshes":
	[
		{
			"name": "PushButtonTop",
			"primitives":
			[
				{
					"attributes":
					{
						"NORMAL": 2,
						"POSITION": 0,
						"TEXCOORD_0": 1
					},
					"indices": 3,
					"material": 0
				}
			]
		}
	],
	"nodes":
	[
		{
			"mesh": 0,
			"name": "PushButtonTop"
		}
	],
	"samplers":
	[
		{
			"magFilter": 9729,
			"minFilter": 9987
		}
	],
	"scene": 0,
	"scenes":
	[
		{
			"name": "Scene",
			"nodes":
			[
				0
			]
		}
	],
	"textures":
	[
		{
			"extensions":
			{
				"MSFT_texture_dds":
				{
					"source": 7
				}
			},
			"sampler": 0,
			"source": 0
		},
		{
			"extensions":
			{
				"MSFT_texture_dds":
				{
					"source": 6
				}
			},
			"sampler": 0,
			"source": 1
		},
		{
			"extensions":
			{
				"MSFT_texture_dds":
				{
					"source": 4
				}
			},
			"sampler": 0,
			"source": 2
		},
		{
			"extensions":
			{
				"MSFT_texture_dds":
				{
					"source": 5
				}
			},
			"sampler": 0,
			"source": 3
		}
	]
}