{
	"accessors": [
		{
			"bufferView": 0,
			"componentType": 5126,
			"count": 328,
			"max": [
				0.09999999403953552,
				0.19999998807907104,
				0.09664929658174515
			],
			"min": [
				-0.09999999403953552,
				-0.19999998807907104,
				-0.0
			],
			"type": "VEC3"
		},
		{
			"bufferView": 1,
			"componentType": 5126,
			"count": 328,
			"type": "VEC3"
		},
		{
			"bufferView": 2,
			"componentType": 5126,
			"count": 328,
			"type": "VEC2"
		},
		{
			"bufferView": 3,
			"componentType": 5126,
			"count": 328,
			"type": "VEC4"
		},
		{
			"bufferView": 4,
			"componentType": 5123,
			"count": 810,
			"type": "SCALAR"
		}
	],
	"asset": {
		"generator": "Ultra Engine glTF Exporter",
		"version": "2.0"
	},
	"bufferViews": [
		{
			"buffer": 0,
			"byteLength": 3936,
			"byteOffset": 0
		},
		{
			"buffer": 0,
			"byteLength": 3936,
			"byteOffset": 3936
		},
		{
			"buffer": 0,
			"byteLength": 2624,
			"byteOffset": 7872
		},
		{
			"buffer": 0,
			"byteLength": 5248,
			"byteOffset": 10496
		},
		{
			"buffer": 0,
			"byteLength": 1620,
			"byteOffset": 15744
		}
	],
	"buffers": [
		{
			"byteLength": 17364,
			"uri": "switchbase.bin"
		}
	],
	"extensionsUsed": [
		"MSFT_texture_dds"
	],
	"images": [
		{
			"uri": "Textures/switch_diffuse.png"
		},
		{
			"uri": "Textures/switch_diffuse.dds"
		},
		{
			"uri": "Textures/switch_metal-switch_roughness.png"
		},
		{
			"uri": "Textures/switch_metal-switch_roughness.dds"
		}
	],
	"materials": [
		{
			"alphaMode": "OPAQUE",
			"doubleSided": false,
			"extras": {
				"ultra": {
					"displacement": [
						0.10000000149011612,
						0.0
					],
					"pickmode": true,
					"shaderfamily": "Shaders/PBR.fam",
					"shadow": true
				}
			},
			"name": "Switch",
			"pbrMetallicRoughness": {
				"baseColorTexture": {
					"index": 0
				},
				"metallicFactor": 1.0,
				"metallicRoughnessTexture": {
					"index": 1
				},
				"roughnessFactor": 1.0
			}
		}
	],
	"meshes": [
		{
			"name": "SwitchBase",
			"primitives": [
				{
					"attributes": {
						"NORMAL": 1,
						"POSITION": 0,
						"TANGENT": 3,
						"TEXCOORD_0": 2
					},
					"indices": 4,
					"material": 0,
					"mode": 4
				}
			]
		}
	],
	"nodes": [
		{
			"extras": {
				"ultra": {
					"collisiontype": 1,
					"physicsmode": 1
				}
			},
			"mesh": 0,
			"name": "SwitchBase"
		}
	],
	"scene": 0,
	"scenes": [
		{
			"nodes": [
				0
			]
		}
	],
	"textures": [
		{
			"extensions": {
				"MSFT_texture_dds": {
					"source": 1
				}
			},
			"source": 0
		},
		{
			"extensions": {
				"MSFT_texture_dds": {
					"source": 3
				}
			},
			"source": 2
		}
	]
}