{
	"accessors": [
		{
			"bufferView": 0,
			"componentType": 5126,
			"count": 302,
			"max": [
				0.009000003337860107,
				0.009000003337860107,
				0.2261999249458313
			],
			"min": [
				-0.009000003337860107,
				-0.009000003337860107,
				4.656612873077393e-10
			],
			"type": "VEC3"
		},
		{
			"bufferView": 1,
			"componentType": 5126,
			"count": 302,
			"type": "VEC3"
		},
		{
			"bufferView": 2,
			"componentType": 5126,
			"count": 302,
			"type": "VEC2"
		},
		{
			"bufferView": 3,
			"componentType": 5126,
			"count": 302,
			"type": "VEC4"
		},
		{
			"bufferView": 4,
			"componentType": 5123,
			"count": 858,
			"type": "SCALAR"
		}
	],
	"asset": {
		"generator": "Ultra Engine glTF Exporter",
		"version": "2.0"
	},
	"bufferViews": [
		{
			"buffer": 0,
			"byteLength": 3624,
			"byteOffset": 0
		},
		{
			"buffer": 0,
			"byteLength": 3624,
			"byteOffset": 3624
		},
		{
			"buffer": 0,
			"byteLength": 2416,
			"byteOffset": 7248
		},
		{
			"buffer": 0,
			"byteLength": 4832,
			"byteOffset": 9664
		},
		{
			"buffer": 0,
			"byteLength": 1716,
			"byteOffset": 14496
		}
	],
	"buffers": [
		{
			"byteLength": 16212,
			"uri": "switchlever.bin"
		}
	],
	"extensionsUsed": [
		"MSFT_texture_dds"
	],
	"images": [
		{
			"uri": "Textures/switch_diffuse.png"
		},
		{
			"uri": "Textures/switch_diffuse.dds"
		},
		{
			"uri": "Textures/switch_metal-switch_roughness.png"
		},
		{
			"uri": "Textures/switch_metal-switch_roughness.dds"
		}
	],
	"materials": [
		{
			"alphaMode": "OPAQUE",
			"doubleSided": false,
			"extras": {
				"ultra": {
					"displacement": [
						0.10000000149011612,
						0.0
					],
					"pickmode": true,
					"shaderfamily": "Shaders/PBR.fam",
					"shadow": true
				}
			},
			"name": "Switch",
			"pbrMetallicRoughness": {
				"baseColorTexture": {
					"index": 0
				},
				"metallicFactor": 1.0,
				"metallicRoughnessTexture": {
					"index": 1
				},
				"roughnessFactor": 1.0
			}
		}
	],
	"meshes": [
		{
			"name": "SwitchLever",
			"primitives": [
				{
					"attributes": {
						"NORMAL": 1,
						"POSITION": 0,
						"TANGENT": 3,
						"TEXCOORD_0": 2
					},
					"indices": 4,
					"material": 0,
					"mode": 4
				}
			]
		}
	],
	"nodes": [
		{
			"extras": {
				"ultra": {
					"collisiontype": 1,
					"physicsmode": 1
				}
			},
			"mesh": 0,
			"name": "SwitchLever"
		}
	],
	"scene": 0,
	"scenes": [
		{
			"nodes": [
				0
			]
		}
	],
	"textures": [
		{
			"extensions": {
				"MSFT_texture_dds": {
					"source": 1
				}
			},
			"source": 0
		},
		{
			"extensions": {
				"MSFT_texture_dds": {
					"source": 3
				}
			},
			"source": 2
		}
	]
}